<svg xmlns="http://www.w3.org/2000/svg" width="23.996" height="23.996" viewBox="0 0 23.996 23.996">
  <path id="github" d="M12,0A12.045,12.045,0,0,0,0,12,12.452,12.452,0,0,0,9.186,24V20.027a2.889,2.889,0,0,1-3.238-1.441c-.273-.46-.756-.959-1.26-.922l-.124-1.4a2.891,2.891,0,0,1,2.592,1.6,1.555,1.555,0,0,0,.9.772,1.89,1.89,0,0,0,1.18-.1,3.3,3.3,0,0,1,.827-1.691h0C6.94,16.379,5.695,14.721,5.2,13.413a5.505,5.505,0,0,1,.855-5.28A.188.188,0,0,0,6.1,7.987a4.6,4.6,0,0,1,.14-3.072,4.858,4.858,0,0,1,2.662,1l.337.2c.141.084.1.036.238.025A10.182,10.182,0,0,1,12,5.791a10.226,10.226,0,0,1,2.553.363l.109.011c-.01,0,.03-.007.1-.046,2.436-1.475,2.348-.993,3-1.206a4.681,4.681,0,0,1,.137,3.074c-.071.218,2.112,2.217.9,5.425-.494,1.309-1.74,2.967-4.865,3.433h0a3.085,3.085,0,0,1,.879,2.195V24A12.452,12.452,0,0,0,24,12,12.045,12.045,0,0,0,12,0Zm0,0" fill="#fff"/>
</svg>
